<svg width="1280" height="800" viewBox="0 0 680 425" xmlns="http://www.w3.org/2000/svg">
<rect width="680" height="425" fill="#0c0c1a"/>

<circle cx="180" cy="200" r="160" fill="#7c3aed" opacity="0.05"/>
<circle cx="500" cy="200" r="140" fill="#ef4444" opacity="0.04"/>

<rect x="50" y="55" width="242" height="310" rx="10" fill="#111124" stroke="#1e1e38" stroke-width="0.8"/>
<rect x="50" y="55" width="242" height="40" rx="10" fill="#18183a"/>
<rect x="50" y="81" width="242" height="14" fill="#18183a"/>
<circle cx="68" cy="75" r="4" fill="#ef4444" opacity="0.7"/>
<circle cx="81" cy="75" r="4" fill="#f59e0b" opacity="0.5"/>
<circle cx="94" cy="75" r="4" fill="#10b981" opacity="0.5"/>
<text x="170" y="79" font-family="system-ui,-apple-system,sans-serif" font-size="10" fill="#ffffff50" text-anchor="middle" letter-spacing="2">TEST RUN #47</text>

<rect x="65" y="112" width="212" height="38" rx="6" fill="#0d1f15"/>
<rect x="65" y="112" width="3" height="38" rx="1.5" fill="#10b981"/>
<circle cx="90" cy="131" r="9" fill="#10b98118" stroke="#10b981" stroke-width="0.8"/>
<polyline points="85,131 89,135 96,127" fill="none" stroke="#10b981" stroke-width="1.5" stroke-linecap="round" stroke-linejoin="round"/>
<text x="108" y="128" font-family="system-ui,-apple-system,sans-serif" font-size="9" fill="#ffffff60">로그인 플로우</text>
<text x="108" y="141" font-family="system-ui,-apple-system,sans-serif" font-size="8" fill="#10b98180">PASS · 1.2s</text>

<rect x="65" y="157" width="212" height="38" rx="6" fill="#0d1f15"/>
<rect x="65" y="157" width="3" height="38" rx="1.5" fill="#10b981"/>
<circle cx="90" cy="176" r="9" fill="#10b98118" stroke="#10b981" stroke-width="0.8"/>
<polyline points="85,176 89,180 96,172" fill="none" stroke="#10b981" stroke-width="1.5" stroke-linecap="round" stroke-linejoin="round"/>
<text x="108" y="173" font-family="system-ui,-apple-system,sans-serif" font-size="9" fill="#ffffff60">검색 기능</text>
<text x="108" y="186" font-family="system-ui,-apple-system,sans-serif" font-size="8" fill="#10b98180">PASS · 0.8s</text>

<rect x="65" y="202" width="212" height="38" rx="6" fill="#1c0d0d"/>
<rect x="65" y="202" width="3" height="38" rx="1.5" fill="#ef4444"/>
<circle cx="90" cy="221" r="9" fill="#ef444418" stroke="#ef4444" stroke-width="0.8"/>
<line x1="85" y1="216" x2="95" y2="226" stroke="#ef4444" stroke-width="1.5" stroke-linecap="round"/>
<line x1="95" y1="216" x2="85" y2="226" stroke="#ef4444" stroke-width="1.5" stroke-linecap="round"/>
<text x="108" y="218" font-family="system-ui,-apple-system,sans-serif" font-size="9" fill="#ffffffa0">메뉴 접속</text>
<text x="108" y="231" font-family="system-ui,-apple-system,sans-serif" font-size="8" fill="#ef444480">FAIL · 3.1s</text>

<rect x="65" y="247" width="212" height="38" rx="6" fill="#0d1f15"/>
<rect x="65" y="247" width="3" height="38" rx="1.5" fill="#10b981"/>
<circle cx="90" cy="266" r="9" fill="#10b98118" stroke="#10b981" stroke-width="0.8"/>
<polyline points="85,266 89,270 96,262" fill="none" stroke="#10b981" stroke-width="1.5" stroke-linecap="round" stroke-linejoin="round"/>
<text x="108" y="263" font-family="system-ui,-apple-system,sans-serif" font-size="9" fill="#ffffff60">결제 플로우</text>
<text x="108" y="276" font-family="system-ui,-apple-system,sans-serif" font-size="8" fill="#10b98180">PASS · 2.4s</text>

<rect x="65" y="292" width="212" height="38" rx="6" fill="#13131e"/>
<rect x="65" y="292" width="3" height="38" rx="1.5" fill="#7c3aed"/>
<circle cx="90" cy="311" r="9" fill="#7c3aed18" stroke="#7c3aed" stroke-width="0.8"/>
<circle cx="90" cy="304" r="2" fill="#7c3aed"/>
<circle cx="97" cy="311" r="1.5" fill="#7c3aed60"/>
<circle cx="90" cy="318" r="1.5" fill="#7c3aed40"/>
<text x="108" y="308" font-family="system-ui,-apple-system,sans-serif" font-size="9" fill="#ffffff50">상점 탐색</text>
<text x="108" y="321" font-family="system-ui,-apple-system,sans-serif" font-size="8" fill="#7c3aed80">RUNNING...</text>

<line x1="305" y1="221" x2="348" y2="221" stroke="#ef444430" stroke-width="1.5" stroke-dasharray="4 4"/>
<polygon points="348,217 358,221 348,225" fill="#ef444450"/>
<text x="326" y="212" font-family="system-ui,-apple-system,sans-serif" font-size="8" fill="#ef444450" text-anchor="middle">자동 생성</text>

<rect x="370" y="55" width="262" height="310" rx="10" fill="#111124" stroke="#1e1e38" stroke-width="0.8"/>
<rect x="370" y="55" width="262" height="40" rx="10" fill="#1e1e38"/>
<rect x="370" y="81" width="262" height="14" fill="#1e1e38"/>
<circle cx="388" cy="75" r="4" fill="#ef4444" opacity="0.7"/>
<circle cx="401" cy="75" r="4" fill="#f59e0b" opacity="0.5"/>
<circle cx="414" cy="75" r="4" fill="#10b981" opacity="0.5"/>
<text x="501" y="79" font-family="system-ui,-apple-system,sans-serif" font-size="10" fill="#ffffff50" text-anchor="middle" letter-spacing="2">BUG REPORT</text>

<rect x="384" y="104" width="64" height="18" rx="9" fill="#ef444418" stroke="#ef444435" stroke-width="0.8"/>
<text x="416" y="116" font-family="system-ui,-apple-system,sans-serif" font-size="8" fill="#ef4444" text-anchor="middle">자동 생성됨</text>

<text x="384" y="143" font-family="system-ui,-apple-system,sans-serif" font-size="10" fill="#ffffffa0" font-weight="500">[TC-003] 메뉴 접속 실패</text>

<line x1="384" y1="154" x2="618" y2="154" stroke="#ffffff0e" stroke-width="0.5"/>

<text x="384" y="172" font-family="system-ui,-apple-system,sans-serif" font-size="8" fill="#ffffff35">상태</text>
<rect x="437" y="161" width="58" height="16" rx="8" fill="#ef444418" stroke="#ef444428" stroke-width="0.5"/>
<text x="466" y="172" font-family="system-ui,-apple-system,sans-serif" font-size="8" fill="#ef4444" text-anchor="middle">미해결</text>

<text x="384" y="192" font-family="system-ui,-apple-system,sans-serif" font-size="8" fill="#ffffff35">재현 경로</text>
<rect x="384" y="199" width="234" height="46" rx="4" fill="#0a0a18" stroke="#1a1a30" stroke-width="0.5"/>
<text x="396" y="214" font-family="system-ui,-apple-system,sans-serif" font-size="8" fill="#ffffff45">1. 메인 페이지 접속</text>
<text x="396" y="226" font-family="system-ui,-apple-system,sans-serif" font-size="8" fill="#ffffff45">2. 상단 메뉴 클릭</text>
<text x="396" y="238" font-family="system-ui,-apple-system,sans-serif" font-size="8" fill="#ef444480">3. 오류 발생 (timeout)</text>

<rect x="384" y="254" width="234" height="52" rx="4" fill="#0a0a18" stroke="#1a1a30" stroke-width="0.5"/>
<rect x="394" y="262" width="52" height="36" rx="2" fill="#1a1a30"/>
<text x="420" y="283" font-family="system-ui,-apple-system,sans-serif" font-size="8" fill="#ffffff20" text-anchor="middle">IMG</text>
<text x="458" y="273" font-family="system-ui,-apple-system,sans-serif" font-size="8" fill="#ffffff50">screenshot_0317.png</text>
<text x="458" y="285" font-family="system-ui,-apple-system,sans-serif" font-size="8" fill="#ffffff28">1.2 MB · 자동 첨부</text>

<rect x="384" y="316" width="234" height="30" rx="4" fill="#0a0a18" stroke="#1a1a30" stroke-width="0.5"/>
<text x="394" y="335" font-family="system-ui,-apple-system,sans-serif" font-size="8" fill="#7c3aed60">담당자 자동 배정 완료</text>

<rect x="50" y="378" width="580" height="28" rx="8" fill="#111124"/>
<circle cx="84" cy="392" r="5" fill="#10b981" opacity="0.35"/>
<text x="96" y="396" font-family="system-ui,-apple-system,sans-serif" font-size="9" fill="#10b98175">4 passed</text>
<line x1="132" y1="384" x2="132" y2="400" stroke="#ffffff0d" stroke-width="0.5"/>
<circle cx="152" cy="392" r="5" fill="#ef4444" opacity="0.35"/>
<text x="164" y="396" font-family="system-ui,-apple-system,sans-serif" font-size="9" fill="#ef444475">1 failed</text>
<line x1="200" y1="384" x2="200" y2="400" stroke="#ffffff0d" stroke-width="0.5"/>
<circle cx="220" cy="392" r="5" fill="#7c3aed" opacity="0.35"/>
<text x="232" y="396" font-family="system-ui,-apple-system,sans-serif" font-size="9" fill="#7c3aed75">1 running</text>
<text x="618" y="396" font-family="system-ui,-apple-system,sans-serif" font-size="8" fill="#ffffff20" text-anchor="end">AutoQA v2.1</text>
</svg>
