<svg width="1280" height="800" viewBox="0 0 680 425" xmlns="http://www.w3.org/2000/svg">
<rect width="680" height="425" fill="#0d0d17"/>

<circle cx="200" cy="212" r="200" fill="#A259FF" opacity="0.05"/>
<circle cx="510" cy="212" r="180" fill="#1ABCFE" opacity="0.04"/>

<rect x="130" y="95" width="70" height="70" rx="18" fill="#F24E1E"/>
<rect x="200" y="95" width="70" height="70" rx="18" fill="#A259FF"/>
<rect x="130" y="165" width="70" height="70" rx="18" fill="#A259FF"/>
<circle cx="235" cy="200" r="35" fill="#1ABCFE"/>
<rect x="130" y="235" width="70" height="70" rx="35" fill="#0ACF83"/>

<text x="200" y="335" font-family="system-ui,-apple-system,sans-serif" font-size="11" fill="#ffffff30" text-anchor="middle" letter-spacing="3">FIGMA</text>

<line x1="275" y1="200" x2="328" y2="200" stroke="#ffffff15" stroke-width="1.5" stroke-dasharray="5 5"/>
<polygon points="328,196 338,200 328,204" fill="#ffffff18"/>

<rect x="345" y="60" width="296" height="305" rx="10" fill="#13131e" stroke="#22223a" stroke-width="0.8"/>

<rect x="345" y="60" width="296" height="36" rx="10" fill="#1a1a2c"/>
<rect x="345" y="82" width="296" height="14" fill="#1a1a2c"/>
<circle cx="365" cy="78" r="4" fill="#F24E1E" opacity="0.7"/>
<circle cx="378" cy="78" r="4" fill="#FF7262" opacity="0.5"/>
<circle cx="391" cy="78" r="4" fill="#0ACF83" opacity="0.5"/>
<text x="493" y="82" font-family="system-ui,-apple-system,sans-serif" font-size="10" fill="#ffffff40" text-anchor="middle">기획서 통합 챗봇</text>

<rect x="425" y="114" width="190" height="44" rx="8" fill="#1f1f38"/>
<rect x="438" y="126" width="120" height="7" rx="3" fill="#ffffff30"/>
<rect x="438" y="140" width="90" height="7" rx="3" fill="#ffffff20"/>

<circle cx="365" cy="188" r="12" fill="#1a1a2c" stroke="#25253c" stroke-width="0.8"/>
<rect x="359" y="182" width="6" height="6" rx="1.5" fill="#F24E1E"/>
<rect x="365" y="182" width="6" height="6" rx="1.5" fill="#A259FF"/>
<rect x="359" y="188" width="6" height="6" rx="1.5" fill="#A259FF"/>
<circle cx="368" cy="191" r="3" fill="#1ABCFE"/>
<rect x="359" y="194" width="6" height="6" rx="3" fill="#0ACF83"/>

<rect x="381" y="174" width="240" height="60" rx="8" fill="#18182a"/>
<rect x="394" y="186" width="140" height="7" rx="3" fill="#A259FF35"/>
<rect x="394" y="200" width="190" height="7" rx="3" fill="#ffffff22"/>
<rect x="394" y="214" width="160" height="7" rx="3" fill="#ffffff18"/>

<rect x="425" y="258" width="190" height="36" rx="8" fill="#1f1f38"/>
<rect x="438" y="270" width="110" height="7" rx="3" fill="#ffffff30"/>
<rect x="438" y="283" width="80" height="7" rx="3" fill="#ffffff20"/>

<circle cx="365" cy="318" r="12" fill="#1a1a2c" stroke="#25253c" stroke-width="0.8"/>
<rect x="359" y="312" width="6" height="6" rx="1.5" fill="#F24E1E"/>
<rect x="365" y="312" width="6" height="6" rx="1.5" fill="#A259FF"/>
<rect x="359" y="318" width="6" height="6" rx="1.5" fill="#A259FF"/>
<circle cx="368" cy="321" r="3" fill="#1ABCFE"/>
<rect x="359" y="324" width="6" height="6" rx="3" fill="#0ACF83"/>

<rect x="381" y="306" width="200" height="44" rx="8" fill="#18182a"/>
<rect x="394" y="318" width="120" height="7" rx="3" fill="#1ABCFE30"/>
<rect x="394" y="332" width="160" height="7" rx="3" fill="#ffffff20"/>
<rect x="394" y="344" width="100" height="7" rx="3" fill="#ffffff15"/>

<rect x="345" y="338" width="296" height="27" rx="0" fill="#111120"/>
<rect x="345" y="338" width="296" height="0.8" fill="#22223a"/>
<rect x="358" y="346" width="200" height="11" rx="5.5" fill="#1e1e30"/>
<circle cx="627" cy="352" r="10" fill="#A259FF" opacity="0.5"/>
</svg>
